<?xml version="1.0" encoding="UTF-8"?>
<!DOCTYPE svg PUBLIC "-//W3C//DTD SVG 1.1//EN" "http://www.w3.org/Graphics/SVG/1.1/DTD/svg11.dtd">
<svg xmlns="http://www.w3.org/2000/svg" version="1.1" width="609px" height="610px" style="shape-rendering:geometricPrecision; text-rendering:geometricPrecision; image-rendering:optimizeQuality; fill-rule:evenodd; clip-rule:evenodd" xmlns:xlink="http://www.w3.org/1999/xlink">
<g><path style="opacity:0.975" fill="#a9aaa9" d="M 279.5,-0.5 C 295.833,-0.5 312.167,-0.5 328.5,-0.5C 376.852,4.00589 421.852,18.8392 463.5,44C 448.635,57.3474 432.468,68.8474 415,78.5C 349.846,48.3334 283.346,44.8334 215.5,68C 208.74,51.8907 202.073,35.724 195.5,19.5C 222.608,8.72206 250.608,2.0554 279.5,-0.5 Z"/></g>
<g><path style="opacity:0.964" fill="#a9aaa9" d="M 517.5,17.5 C 518.586,17.62 519.253,18.2867 519.5,19.5C 509.996,67.7049 486.329,107.205 448.5,138C 418.171,161.513 385.504,181.513 350.5,198C 307.38,214.227 264.713,231.561 222.5,250C 179.977,269.539 142.811,296.372 111,330.5C 68.9358,379.497 59.6024,434.164 83,494.5C 105.955,547.88 145.455,582.047 201.5,597C 146.028,595.845 100.194,574.345 64,532.5C 41.445,506.037 28.1117,475.37 24,440.5C 18.4286,408.262 23.762,377.929 40,349.5C 60.0665,314.426 86.2332,284.593 118.5,260C 140,243.74 163,229.74 187.5,218C 231.485,196.677 276.819,178.677 323.5,164C 372.074,146.388 416.74,122.055 457.5,91C 431.656,106.601 404.989,121.267 377.5,135C 340.116,150.574 302.116,164.574 263.5,177C 222.592,191.417 182.926,208.75 144.5,229C 105.991,250.176 74.491,279.009 50,315.5C 44.532,324.77 39.8654,334.436 36,344.5C 28.8954,363.918 22.5621,383.585 17,403.5C 20.133,341.07 45.2997,289.57 92.5,249C 112.798,233.18 134.132,218.847 156.5,206C 132.479,150.432 109.146,94.5984 86.5,38.5C 119.84,38.1668 153.173,38.5001 186.5,39.5C 203.675,83.2135 221.508,126.547 240,169.5C 276.424,156.136 312.924,142.97 349.5,130C 381.025,117.737 411.359,103.07 440.5,86C 469.109,66.5624 494.776,43.729 517.5,17.5 Z"/></g>
<g><path style="opacity:0.976" fill="#7a0000" d="M 608.5,279.5 C 608.5,296.167 608.5,312.833 608.5,329.5C 597.302,431.777 548.635,510.611 462.5,566C 420.982,590.451 376.316,604.951 328.5,609.5C 312.167,609.5 295.833,609.5 279.5,609.5C 251.522,606.842 224.188,600.675 197.5,591C 155.026,572.526 124.526,542.026 106,499.5C 97.5531,481.049 93.2197,461.716 93,441.5C 135.505,505.603 195.005,543.437 271.5,555C 365.176,563.902 442.009,532.402 502,460.5C 555.86,387.334 568.86,307.334 541,220.5C 528.221,186.099 509.388,155.599 484.5,129C 497.083,115.676 507.583,100.843 516,84.5C 570.114,138.286 600.947,203.286 608.5,279.5 Z"/></g>
<g><path style="opacity:0.969" fill="#a9aaa9" d="M -0.5,329.5 C -0.5,312.833 -0.5,296.167 -0.5,279.5C 6.70853,206.428 35.5419,143.428 86,90.5C 93.6988,108.6 101.199,126.766 108.5,145C 99.6497,157.848 91.1497,171.015 83,184.5C 70.953,207.264 62.2863,231.264 57,256.5C 32.2676,285.285 14.2676,317.951 3,354.5C 1.89926,346.01 0.73259,337.677 -0.5,329.5 Z"/></g>
<g><path style="opacity:0.004" fill="#7a0000" d="M 481.5,121.5 C 482.833,122.167 482.833,122.167 481.5,121.5 Z"/></g>
<g><path style="opacity:0.979" fill="#7a0000" d="M 481.5,122.5 C 422.278,265.169 362.278,407.503 301.5,549.5C 265.704,465.406 230.038,381.24 194.5,297C 191.053,297.712 187.719,299.045 184.5,301C 142.148,326.19 109.648,360.69 87,404.5C 89.1863,388.445 94.5197,373.445 103,359.5C 128.255,322.463 160.755,293.63 200.5,273C 222.146,262.01 244.146,251.843 266.5,242.5C 267.647,242.818 268.481,243.484 269,244.5C 279.549,271.321 290.382,297.987 301.5,324.5C 317.422,285.907 333.256,247.241 349,208.5C 386.761,192.546 421.927,172.379 454.5,148C 463.671,139.661 472.671,131.161 481.5,122.5 Z"/></g>
</svg>
